<svg width="66" height="48" viewBox="0 0 66 48" fill="none" xmlns="http://www.w3.org/2000/svg">
<path d="M50.3282 32.0147L48.2606 31.3501C48.1868 31.3501 48.1129 31.2763 48.1129 31.2763C47.9652 31.2024 47.8175 31.0547 47.8175 30.8332L46.636 26.5502L46.1191 24.7041C45.8237 23.6703 44.8637 22.9318 43.8299 22.9318H36.0024V20.7165C36.0024 20.2734 35.707 19.978 35.2639 19.978H11.3383C10.8952 19.978 10.5998 20.2734 10.5998 20.7165V25.6641H1.73845C1.29538 25.6641 1 25.9594 1 26.4025C1 26.8456 1.29538 27.141 1.73845 27.141H10.5998V30.0209H7.49833C7.05526 30.0209 6.75989 30.3163 6.75989 30.7594C6.75989 31.2024 7.05526 31.4978 7.49833 31.4978H10.5998V37.4792V41.7622C10.5998 43.0176 11.6336 44.0514 12.889 44.0514H15.6951C16.0643 45.676 17.5412 46.8575 19.2396 46.8575C20.9381 46.8575 22.415 45.676 22.7842 44.0514H35.1901H39.5469C39.9162 45.676 41.393 46.8575 43.0915 46.8575C44.7899 46.8575 46.2668 45.676 46.636 44.0514H49.6636C50.919 44.0514 51.9528 43.0176 51.9528 41.7622V39.3992V36.2977V34.3777C52.0267 33.2701 51.2882 32.3839 50.3282 32.0147ZM46.3406 31.1286H41.0238V27.4363H45.3068L46.3406 31.1286ZM19.3135 30.0209H12.0767V27.141H19.3135C19.7565 27.141 20.0519 26.8456 20.0519 26.4025C20.0519 25.9594 19.7565 25.6641 19.3135 25.6641H12.0767V21.4549H34.5255V23.6703V36.7408H12.0767V31.4978H19.3135C19.7565 31.4978 20.0519 31.2024 20.0519 30.7594C20.0519 30.3163 19.6827 30.0209 19.3135 30.0209ZM19.3135 45.3806C18.132 45.3806 17.172 44.4206 17.172 43.2391C17.172 42.6483 17.3935 42.1314 17.8366 41.6884C18.2058 41.3191 18.7966 41.0238 19.3873 41.0238C20.5688 41.0238 21.5288 41.9837 21.5288 43.2391C21.455 44.4206 20.495 45.3806 19.3135 45.3806ZM22.858 42.5745C22.858 42.4268 22.7842 42.4268 22.7842 42.353C22.7103 42.2053 22.7103 42.0576 22.6365 41.9099C22.6365 41.8361 22.5627 41.7622 22.4888 41.6884C22.415 41.5407 22.3411 41.4668 22.2673 41.3191C22.1934 41.2453 22.1934 41.1715 22.1196 41.0976C22.0457 41.0238 21.9719 40.8761 21.898 40.8022C21.8242 40.7284 21.7504 40.6545 21.6765 40.5807C21.6027 40.5069 21.455 40.433 21.3811 40.3592C21.3073 40.2853 21.2334 40.2853 21.1596 40.2115C21.0119 40.1376 20.9381 40.0638 20.7904 39.9899C20.7165 39.9161 20.6427 39.9161 20.5688 39.8422C20.4212 39.7684 20.2735 39.7684 20.1258 39.6946C20.0519 39.6946 19.9781 39.6207 19.9042 39.6207C19.6827 39.5469 19.4612 39.5469 19.2396 39.5469C19.0181 39.5469 18.7966 39.5469 18.575 39.6207C18.5012 39.6207 18.4273 39.6946 18.3535 39.6946C18.2058 39.7684 18.0581 39.7684 17.9104 39.8422C17.8366 39.8422 17.7627 39.9161 17.6889 39.9161C17.5412 39.9899 17.4674 40.0638 17.3197 40.1376C17.2458 40.2115 17.172 40.2115 17.0981 40.2853C17.0243 40.3592 16.8766 40.433 16.8028 40.5069C16.7289 40.5807 16.6551 40.6545 16.5812 40.7284C16.5074 40.8022 16.4335 40.9499 16.3597 41.0238C16.2859 41.0976 16.2858 41.1715 16.212 41.2453C16.1382 41.393 16.0643 41.4668 15.9905 41.6145C15.9905 41.6884 15.9166 41.7622 15.9166 41.8361C15.8428 41.9837 15.8428 42.1314 15.7689 42.2791C15.7689 42.353 15.6951 42.4268 15.6951 42.5007C15.6951 42.5007 15.6951 42.5007 15.6951 42.5745H12.9628C12.5198 42.5745 12.1505 42.2053 12.1505 41.7622V38.2177H34.5993V42.5745H22.858ZM43.0915 45.3806C41.91 45.3806 40.95 44.4206 40.95 43.2391C40.95 42.0576 41.91 41.0976 43.0915 41.0976C44.273 41.0976 45.233 42.0576 45.233 43.3129C45.233 44.4206 44.273 45.3806 43.0915 45.3806ZM49.6636 42.5745H46.7099C46.7099 42.5745 46.7099 42.5745 46.7099 42.5007C46.7099 42.4268 46.636 42.353 46.636 42.2791C46.5622 42.1314 46.5622 41.9837 46.4883 41.8361C46.4883 41.7622 46.4145 41.6884 46.3406 41.6145C46.2668 41.4668 46.193 41.393 46.1191 41.2453C46.0453 41.1715 46.0453 41.0976 45.9714 41.0238C45.8976 40.9499 45.8237 40.8022 45.7499 40.7284C45.676 40.6545 45.6022 40.5807 45.5283 40.5069C45.4545 40.433 45.3068 40.3592 45.233 40.2853C45.1591 40.2115 45.0853 40.1376 45.0114 40.1376C44.9376 40.0638 44.7899 39.9899 44.6422 39.9161C44.5684 39.8422 44.4945 39.8423 44.4207 39.7684C44.273 39.6946 44.1253 39.6946 43.9776 39.6207C43.9038 39.6207 43.8299 39.5469 43.7561 39.5469C43.5345 39.473 43.313 39.473 43.0915 39.473H43.0176H42.9438C42.7222 39.473 42.5007 39.473 42.2792 39.5469C42.2053 39.5469 42.1315 39.6207 42.0576 39.6207C41.91 39.6946 41.7623 39.6946 41.6146 39.7684C41.5407 39.7684 41.4669 39.8422 41.393 39.9161C41.2454 39.9899 41.1715 40.0638 41.0238 40.1376C40.95 40.2115 40.8761 40.2115 40.8023 40.2853C40.7284 40.3592 40.5808 40.433 40.5069 40.5069C40.4331 40.5807 40.3592 40.6545 40.2854 40.7284C40.2115 40.8022 40.1377 40.9499 40.0638 41.0238C39.99 41.0976 39.99 41.1715 39.9162 41.2453C39.8423 41.393 39.7685 41.4668 39.6946 41.6145C39.6208 41.6884 39.6208 41.7622 39.5469 41.8361C39.4731 41.9837 39.4731 42.1314 39.3992 42.2791C39.3992 42.353 39.3254 42.4268 39.3254 42.5007C39.3254 42.5007 39.3254 42.5007 39.3254 42.5745H35.8547V37.4792V24.3349H43.6084C44.0515 24.3349 44.4207 24.6302 44.4945 24.9995L44.7161 25.9594H40.2854C39.8423 25.9594 39.5469 26.2548 39.5469 26.6979V31.867C39.5469 32.3101 39.8423 32.6055 40.2854 32.6055H47.5222C47.596 32.6055 47.6698 32.6793 47.7437 32.6793L49.8113 33.3439C50.1806 33.4916 50.4759 33.8608 50.4759 34.3039V35.4854H49.7375C48.4821 35.4854 47.4483 36.5192 47.4483 37.7746C47.4483 39.03 48.4821 40.0638 49.7375 40.0638H50.4759V41.6884C50.5498 42.2053 50.1067 42.5745 49.6636 42.5745ZM50.5498 38.6607H49.8113C49.3683 38.6607 48.999 38.2915 48.999 37.8484C48.999 37.4054 49.3683 37.0361 49.8113 37.0361H50.5498V38.6607Z" fill="#12AF9B" fill-opacity="0.4" stroke="#12AF9B" stroke-opacity="0.4" stroke-width="0.443068"/>
<path d="M41.5406 34.1562H40.3591C39.916 34.1562 39.6206 34.4516 39.6206 34.8947C39.6206 35.3378 39.916 35.6331 40.3591 35.6331H41.5406C41.9836 35.6331 42.279 35.3378 42.279 34.8947C42.279 34.4516 41.9836 34.1562 41.5406 34.1562Z" fill="#12AF9B" fill-opacity="0.4"/>
<path d="M60.7403 8.75364C60.7403 6.75983 59.1157 5.0614 57.0481 5.0614C54.9804 5.0614 53.3558 6.68598 53.3558 8.75364C53.3558 10.8213 54.9804 12.4459 57.0481 12.4459C59.1157 12.4459 60.7403 10.8213 60.7403 8.75364ZM54.9066 8.75364C54.9066 7.57212 55.8666 6.5383 57.1219 6.5383C58.3773 6.5383 59.3373 7.49828 59.3373 8.75364C59.3373 10.009 58.3773 10.969 57.1219 10.969C55.8666 10.969 54.9066 9.93515 54.9066 8.75364Z" fill="#12AF9B" fill-opacity="0.4"/>
<path d="M61.7003 18.5751H59.1158C61.2573 16.6551 64.8018 12.8152 64.8018 8.7537C64.8018 4.4707 61.3311 1 57.0481 1C52.7651 1 49.2944 4.4707 49.2944 8.7537C49.2944 14.0705 55.202 18.8704 56.3835 19.7566C56.5312 19.9043 56.7527 20.0519 56.9743 20.0519H61.7003C62.5865 20.0519 63.3249 20.7904 63.3249 21.6765C63.3249 22.5627 62.5865 23.2273 61.7003 23.2273H54.242C52.0267 23.2273 50.1806 24.9995 50.1806 27.2887C50.1806 29.5779 51.9528 31.3502 54.242 31.3502H56.9743C58.2296 31.3502 59.3373 32.384 59.3373 33.7132C59.3373 35.0424 58.3035 36.0763 56.9743 36.0763H54.0205C53.5774 36.0763 53.282 36.3716 53.282 36.8147C53.282 37.2578 53.5774 37.5531 54.0205 37.5531H56.9743C59.0419 37.5531 60.8142 35.8547 60.8142 33.7132C60.8142 31.5717 59.0419 29.8733 56.9743 29.8733H54.242C52.839 29.8733 51.6575 28.6918 51.6575 27.2887C51.6575 25.8857 52.839 24.7042 54.242 24.7042H61.7003C63.3988 24.7042 64.8018 23.3011 64.8018 21.6027C64.8018 19.9043 63.3988 18.5751 61.7003 18.5751ZM50.8452 8.7537C50.8452 5.283 53.6513 2.47689 57.122 2.47689C60.5927 2.47689 63.3988 5.283 63.3988 8.7537C63.3988 12.9628 58.6727 17.172 57.122 18.3535C55.5712 17.172 50.8452 12.9628 50.8452 8.7537Z" fill="#12AF9B" fill-opacity="0.4" stroke="#12AF9B" stroke-opacity="0.4" stroke-width="0.443068"/>
<path d="M8.97522 34.3778H3.95378C3.51071 34.3778 3.21533 34.6732 3.21533 35.1163C3.21533 35.5593 3.51071 35.8547 3.95378 35.8547H8.97522C9.41829 35.8547 9.71367 35.5593 9.71367 35.1163C9.71367 34.6732 9.34444 34.3778 8.97522 34.3778Z" fill="#12AF9B" fill-opacity="0.4"/>
</svg>
