<svg width="62" height="42" viewBox="0 0 62 42" fill="none" xmlns="http://www.w3.org/2000/svg">
<path d="M0.125488 27.0121H5.84593V40.3598H0.125488V27.0121ZM41.0267 29.491C40.5404 28.652 39.5012 28.3088 38.605 28.6997L30.2532 32.3703C29.7669 32.58 29.2426 32.6945 28.7182 32.6945H21.1005V30.7876H24.9141C25.9628 30.7876 26.8209 29.9296 26.8209 28.8808V28.6806C26.8209 27.6319 25.9628 26.7738 24.9141 26.7738H19.9278L9.65956 28.919H7.75275V38.453L21.7202 41.38C23.1026 41.666 24.5327 41.4372 25.7531 40.7317L40.426 32.2559C41.3413 31.7315 41.6464 30.5588 41.122 29.6531L41.0267 29.491ZM55.4041 0.25V13.5977H61.1245V0.25H55.4041ZM51.5904 2.15681H53.4972V11.6909H51.5904L38.3762 19.8807C37.48 20.4336 36.2978 20.1571 35.7448 19.2514L35.7067 19.1847C35.249 20.1953 34.4005 21.0247 33.2755 21.4347C32.7892 21.6063 32.303 21.6921 31.8168 21.6921C30.3771 21.6921 29.0042 20.958 28.2129 19.7281L17.3631 23.6752L15.7328 19.1942L17.5252 18.5459L18.5072 21.2345L20.2996 20.5862L19.3176 17.8976L21.11 17.2493L22.092 19.9379L27.5741 17.9452C27.412 16.62 27.8792 15.3043 28.7944 14.3795C28.3845 14.3604 27.9841 14.2174 27.6504 13.9409L27.4978 13.8075C26.697 13.1305 26.5825 11.9292 27.2595 11.1284L34.3528 2.64305C35.6018 1.1462 37.5181 0.393011 39.4535 0.631363L51.5904 2.15681ZM34.0477 16.5914C33.695 15.6285 32.7797 15.0278 31.8072 15.0278C31.5403 15.0278 31.2638 15.0755 30.9968 15.1708C29.7574 15.6189 29.1186 16.9918 29.5762 18.2217C30.0243 19.4516 31.3973 20.0999 32.6271 19.6423C33.857 19.2037 34.4958 17.8308 34.0477 16.5914ZM40.1495 10.7375C40.1495 9.68873 39.2915 8.83067 38.2427 8.83067H36.0403C35.6494 8.83067 35.2681 8.98321 34.9821 9.25016L30.8252 13.2354C32.9132 12.7492 35.0869 13.8837 35.8306 15.9431C35.9164 16.1814 35.9736 16.4198 36.0213 16.6677C36.0499 16.6391 36.0689 16.6105 36.0975 16.5914L39.5489 13.9219C39.9207 13.6358 40.14 13.1877 40.14 12.711V10.7375H40.1495Z" fill="#12AF9B"/>
</svg>
