<svg width="76" height="31" viewBox="0 0 76 31" fill="none" xmlns="http://www.w3.org/2000/svg">
<path d="M75.0897 24.3237C75.0897 25.6497 74.018 26.7222 72.6927 26.7222H44.1927C43.517 26.7222 42.9073 26.444 42.4708 25.991L23.6608 6.56525L4.217 26.0203C3.782 26.4552 3.1835 26.723 2.52125 26.723C1.19675 26.723 0.125 25.6497 0.125 24.3245C0.125 23.6622 0.3935 23.063 0.82625 22.6302L21.9935 1.451C22.4278 1.01825 23.0278 0.74825 23.6893 0.74825C24.365 0.74825 24.9755 1.028 25.4105 1.478L30.9215 7.172H45.6965V0.5H52.0557V7.172H59.771C60.4888 7.172 61.1345 7.48925 61.5747 7.98875L74.4965 22.7435C74.8662 23.1665 75.0897 23.7215 75.0897 24.3237ZM17.0503 23.4905H22.2808V18.257H17.0503V23.4905ZM24.9365 23.4905H30.1663V18.257H24.9365V23.4905ZM17.0503 30.98H22.2808V25.7465H17.0503V30.98ZM24.9365 31.007H30.1663V25.7727H24.9365V31.007Z" fill="#12AF9B"/>
</svg>
