<svg width="36" height="45" viewBox="0 0 36 45" fill="none" xmlns="http://www.w3.org/2000/svg">
<path d="M21.0653 18.6369L13.0495 20.7951L10.0706 16.4247L-4.38124 20.3157L-6.84183 17.5359L-6.10959 13.8964L8.34223 10.0054L8.72867 4.74686L16.7444 2.58868C18.0206 2.24507 19.3809 2.42128 20.5275 3.07873C21.674 3.73617 22.5132 4.82124 22.8613 6.09623L24.5896 12.5155C24.9292 13.7945 24.7493 15.1558 24.089 16.3026C23.4288 17.4493 22.3418 18.2885 21.0653 18.6369Z" stroke="#12AF9B" stroke-opacity="0.4" stroke-width="1.81686" stroke-miterlimit="10"/>
<path d="M18.1704 14.2439L16.442 7.82458" stroke="#12AF9B" stroke-opacity="0.4" stroke-width="1.81686" stroke-miterlimit="10"/>
<path d="M-0.338462 15.785L-1.20264 12.5753" stroke="#12AF9B" stroke-opacity="0.4" stroke-width="1.81686" stroke-miterlimit="10"/>
<path d="M4.46757 14.491L3.60339 11.2814" stroke="#12AF9B" stroke-opacity="0.4" stroke-width="1.81686" stroke-miterlimit="10"/>
<path d="M10.0706 16.4247L6.65808 22.4259L10.1483 26.3523L7.6923 30.6181L5.2363 34.8839L2.78031 39.1497L4.7943 42.2119L8.46285 42.4497L15.9336 29.4986L21.1359 30.7472L25.2025 23.5607C25.8345 22.4654 26.026 21.1707 25.738 19.9394C25.45 18.7081 24.7041 17.6326 23.6519 16.9313" stroke="#12AF9B" stroke-opacity="0.4" stroke-width="1.81686" stroke-miterlimit="10"/>
<path d="M15.7718 20.0623L20.0544 22.5137" stroke="#12AF9B" stroke-opacity="0.4" stroke-width="1.81686" stroke-miterlimit="10"/>
<path d="M8.06783 36.6988L5.18843 35.041" stroke="#12AF9B" stroke-opacity="0.4" stroke-width="1.81686" stroke-miterlimit="10"/>
<path d="M10.5439 32.3735L7.66451 30.7157" stroke="#12AF9B" stroke-opacity="0.4" stroke-width="1.81686" stroke-miterlimit="10"/>
<path d="M25.8481 20.7375C27.2889 20.1653 28.4845 19.1076 29.228 17.7473C29.9715 16.387 30.2162 14.8096 29.9199 13.288C29.6235 11.7663 28.8046 10.3961 27.6049 9.41424C26.4052 8.43241 24.9001 7.90073 23.3499 7.91115C22.1218 7.92573 20.9218 8.28024 19.8829 8.93534C18.844 9.59044 18.0069 10.5205 17.4645 11.6224" stroke="#12AF9B" stroke-opacity="0.4" stroke-width="1.81686" stroke-miterlimit="10"/>
</svg>
