<svg width="120" height="52" viewBox="0 0 120 52" fill="none" xmlns="http://www.w3.org/2000/svg">
<path d="M25.0553 32.8256C25.8462 32.8001 26.5521 32.9671 27.0792 33.5659C27.6887 34.2578 27.6291 35.2185 26.9695 35.6341C26.2108 36.1119 25.097 35.871 24.6854 35.0523C24.4422 34.5686 23.5425 32.6742 25.0553 32.8256Z" fill="#4FD9CC"/>
<path d="M18.5622 29.3563C20.3188 29.3563 21.7428 27.9322 21.7428 26.1756C21.7428 24.419 20.3188 22.995 18.5622 22.995C16.8056 22.995 15.3816 24.419 15.3816 26.1756C15.3816 27.9322 16.8056 29.3563 18.5622 29.3563Z" fill="#2C3E50"/>
<path d="M22.6961 31.0421C23.1431 30.6431 23.8283 30.6784 24.2318 31.1218L25.5086 32.5249C27.0537 30.8271 27.9131 28.6551 27.9449 26.3491C27.9799 23.8138 26.9946 21.3815 25.2032 19.5866C23.4301 17.8104 21.0713 16.8323 18.562 16.8323C16.0554 16.8323 13.6988 17.8081 11.9267 19.5807C10.1545 21.3533 9.17822 23.7095 9.17822 26.2161C9.17822 28.7227 10.1541 31.0793 11.9267 32.8514C13.6993 34.624 16.0554 35.5999 18.562 35.5999C20.4784 35.5999 22.3065 35.0289 23.8534 33.9683L22.6115 32.5885C22.2066 32.138 22.2447 31.4447 22.6961 31.0421ZM13.2268 26.2156C13.2268 23.2737 15.6201 20.8804 18.562 20.8804C21.5039 20.8804 23.8973 23.2737 23.8973 26.2156C23.8973 29.1575 21.5039 31.5509 18.562 31.5509C15.6201 31.5509 13.2268 29.1575 13.2268 26.2156Z" fill="#2C3E50"/>
<path d="M18.5634 15.6286C18.7649 15.6165 18.9674 15.6107 19.1711 15.6107C21.8403 15.6107 24.3496 16.6502 26.2369 18.5374C28.1241 20.4247 29.1636 22.934 29.1636 25.6031C29.1636 25.8678 29.1533 26.1307 29.1331 26.3914L23.8977 26.2118C23.8977 23.2698 21.5044 20.8765 18.5625 20.8765L18.5634 15.6286Z" fill="#4FD9CC"/>
<path d="M35.3793 31.706C34.42 31.1874 33.6676 30.4681 33.1212 29.5482C32.5748 28.6283 32.3016 27.5996 32.3016 26.4621C32.3016 25.3246 32.5748 24.2958 33.1212 23.376C33.6676 22.4561 34.42 21.7368 35.3793 21.2182C36.3381 20.6996 37.4143 20.4403 38.6074 20.4403C39.8004 20.4403 40.8766 20.6996 41.8355 21.2182C42.7943 21.7368 43.5471 22.4534 44.0935 23.3675C44.6399 24.282 44.9131 25.3134 44.9131 26.4616C44.9131 27.6104 44.6399 28.6418 44.0935 29.5558C43.5471 30.4704 42.7943 31.1865 41.8355 31.7051C40.8762 32.2237 39.8004 32.483 38.6074 32.483C37.4138 32.4834 36.3381 32.2246 35.3793 31.706ZM40.7149 30.0498C41.3392 29.6987 41.8296 29.2079 42.187 28.5777C42.5435 27.9481 42.7222 27.2427 42.7222 26.4621C42.7222 25.6815 42.5435 24.9761 42.187 24.346C41.8301 23.7163 41.3397 23.2255 40.7149 22.8739C40.0902 22.5228 39.388 22.3473 38.6074 22.3473C37.8268 22.3473 37.1241 22.5228 36.4998 22.8739C35.875 23.225 35.3846 23.7159 35.0277 24.346C34.6708 24.9761 34.4925 25.6815 34.4925 26.4621C34.4925 27.2427 34.6708 27.9481 35.0277 28.5777C35.3846 29.2079 35.875 29.6983 36.4998 30.0498C37.1241 30.4009 37.8268 30.5765 38.6074 30.5765C39.3875 30.5769 40.0902 30.4014 40.7149 30.0498Z" fill="#606060"/>
<path d="M47.1209 21.5532C46.8643 21.3136 46.7362 21.0153 46.7362 20.6584C46.7362 20.3014 46.8643 20.0036 47.1209 19.7636C47.3771 19.524 47.6951 19.4039 48.0744 19.4039C48.4533 19.4039 48.7712 19.5186 49.0279 19.747C49.284 19.9758 49.4126 20.2629 49.4126 20.6082C49.4126 20.9763 49.2872 21.2858 49.0364 21.5366C48.7856 21.7874 48.4649 21.9128 48.0744 21.9128C47.6951 21.9128 47.3771 21.7928 47.1209 21.5532ZM47.0206 23.3844H49.1112V32.3163H47.0206V23.3844Z" fill="#606060"/>
<path d="M55.5004 28.4865L53.9451 29.9586V32.3169H51.8545V19.9061H53.9451V27.3995L58.2771 23.3855H60.786L57.0558 27.1322L61.1371 32.3174H58.5946L55.5004 28.4865Z" fill="#606060"/>
<path d="M70.9722 23.3838V32.3157H68.982V31.1782C68.6474 31.5794 68.2291 31.8889 67.7275 32.1066C67.2259 32.3242 66.6849 32.4326 66.105 32.4326C64.9114 32.4326 63.9723 32.1007 63.2866 31.4375C62.601 30.7742 62.2579 29.7898 62.2579 28.4852V23.3838H64.3485V28.2009C64.3485 29.0039 64.5294 29.6031 64.8922 29.999C65.2545 30.3949 65.7704 30.5928 66.4395 30.5928C67.1865 30.5928 67.7804 30.3613 68.2211 29.8987C68.6613 29.436 68.8816 28.7696 68.8816 27.8999V23.3838H70.9722Z" fill="#606060"/>
<path d="M74.3505 32.1495C73.659 31.9601 73.1068 31.7205 72.6948 31.4303L73.4978 29.8413C73.8991 30.1091 74.3814 30.3236 74.9448 30.4853C75.5078 30.647 76.0627 30.7281 76.609 30.7281C77.8576 30.7281 78.4824 30.3993 78.4824 29.741C78.4824 29.4288 78.3234 29.2116 78.0059 29.0885C77.6879 28.9658 77.1778 28.8489 76.4756 28.7374C75.7398 28.6258 75.1401 28.4978 74.6775 28.3527C74.2148 28.208 73.8131 27.9541 73.4732 27.5918C73.1328 27.2295 72.9631 26.7247 72.9631 26.078C72.9631 25.2307 73.3169 24.5535 74.0254 24.0457C74.7334 23.5383 75.6896 23.2848 76.8939 23.2848C77.507 23.2848 78.1205 23.3547 78.7336 23.4939C79.3467 23.6337 79.8483 23.82 80.2389 24.0542L79.4359 25.6432C78.6777 25.1971 77.8245 24.9741 76.8768 24.9741C76.2633 24.9741 75.798 25.0659 75.48 25.25C75.162 25.434 75.0035 25.6763 75.0035 25.9777C75.0035 26.3123 75.1732 26.5492 75.5136 26.6884C75.8535 26.8282 76.3806 26.959 77.0941 27.0817C77.8075 27.1932 78.3928 27.3217 78.8505 27.4664C79.3078 27.6115 79.7005 27.8569 80.0297 28.2022C80.3584 28.5479 80.5232 29.0383 80.5232 29.6743C80.5232 30.5104 80.1609 31.1795 79.4359 31.6815C78.7108 32.1831 77.7242 32.4344 76.4751 32.4344C75.7496 32.4335 75.042 32.339 74.3505 32.1495Z" fill="#606060"/>
<path d="M82.5298 20.6077H87.6478C88.8964 20.6077 90.0062 20.8504 90.9762 21.3354C91.9463 21.8204 92.6991 22.5061 93.2343 23.3928C93.7695 24.2791 94.0373 25.3025 94.0373 26.462C94.0373 27.6219 93.7695 28.6448 93.2343 29.5311C92.6991 30.4174 91.9463 31.1035 90.9762 31.5885C90.0062 32.0735 88.8964 32.3163 87.6478 32.3163H82.5298V20.6077ZM87.5475 30.4765C88.406 30.4765 89.1615 30.3121 89.8141 29.983C90.4666 29.6542 90.9682 29.1858 91.3193 28.578C91.6704 27.9703 91.846 27.265 91.846 26.4624C91.846 25.6599 91.6704 24.9545 91.3193 24.3463C90.9682 23.7386 90.4661 23.2701 89.8141 22.9414C89.1615 22.6127 88.406 22.4479 87.5475 22.4479H84.7041V30.4765H87.5475Z" fill="#606060"/>
<path d="M102.576 24.2287C103.273 24.8589 103.621 25.8092 103.621 27.0806V32.316H101.648V31.2286C101.391 31.6192 101.026 31.9174 100.552 32.1234C100.078 32.3294 99.5069 32.4329 98.8378 32.4329C98.1687 32.4329 97.5834 32.3182 97.0818 32.0898C96.5798 31.8614 96.1924 31.5435 95.9192 31.1364C95.646 30.7293 95.5094 30.2693 95.5094 29.7565C95.5094 28.9535 95.8077 28.3095 96.4042 27.8245C97.0007 27.3395 97.9403 27.0968 99.2225 27.0968H101.531V26.9629C101.531 26.3386 101.344 25.8589 100.97 25.5244C100.597 25.1898 100.042 25.0228 99.3063 25.0228C98.8047 25.0228 98.3112 25.1011 97.8261 25.257C97.3411 25.4133 96.9313 25.6305 96.5968 25.9095L95.7772 24.3873C96.2457 24.0303 96.8086 23.7576 97.4665 23.5677C98.1244 23.3783 98.8213 23.2833 99.5571 23.2833C100.872 23.2838 101.879 23.5991 102.576 24.2287ZM100.669 30.5515C101.076 30.3119 101.363 29.9688 101.53 29.5228V28.4855H99.3726C98.1683 28.4855 97.5659 28.8814 97.5659 29.6732C97.5659 30.0526 97.7164 30.3535 98.0174 30.5766C98.3183 30.7996 98.7366 30.9111 99.2718 30.9111C99.7967 30.9111 100.262 30.7911 100.669 30.5515Z" fill="#606060"/>
<path d="M111.667 31.8319C111.421 32.0326 111.123 32.1831 110.772 32.2834C110.421 32.3837 110.05 32.4339 109.659 32.4339C108.678 32.4339 107.92 32.1777 107.385 31.6644C106.85 31.1517 106.582 30.4046 106.582 29.423V25.1245H105.11V23.4518H106.582V21.4114H108.673V23.4518H111.065V25.1245H108.673V29.3728C108.673 29.8077 108.778 30.1395 108.991 30.3679C109.203 30.5968 109.509 30.711 109.911 30.711C110.379 30.711 110.769 30.5883 111.081 30.3428L111.667 31.8319Z" fill="#606060"/>
</svg>
