<svg width="76" height="236" viewBox="0 0 76 236" fill="none" xmlns="http://www.w3.org/2000/svg">
<g filter="url(#filter0_d_184_148)">
<g clip-path="url(#clip0_184_148)">
<rect x="70.8608" y="11.249" width="208.348" height="48.0935" rx="15.4215" transform="rotate(89.9111 70.8608 11.249)" fill="white"/>
<g clip-path="url(#clip1_184_148)">
<path fill-rule="evenodd" clip-rule="evenodd" d="M46.9332 27.3411C52.8488 27.3411 57.6612 32.1535 57.6612 38.0691C57.6612 43.9847 52.8488 48.7971 46.9332 48.7971C41.0177 48.7971 36.2052 43.9847 36.2052 38.0691C36.2052 32.1535 41.0177 27.3411 46.9332 27.3411ZM46.9332 28.6032C41.7131 28.6032 37.4673 32.8489 37.4673 38.0691C37.4673 43.2891 41.7131 47.535 46.9332 47.535C52.1533 47.535 56.3991 43.2891 56.3991 38.0691C56.3991 32.8489 52.1533 28.6032 46.9332 28.6032ZM46.9332 32.1091C50.2248 32.1091 52.8932 34.7774 52.8932 38.0691C52.8932 41.3607 50.2248 44.029 46.9332 44.029C43.6416 44.029 40.9732 41.3607 40.9732 38.0691C40.9732 34.7774 43.6416 32.1091 46.9332 32.1091Z" fill="#B3B3B3"/>
</g>
<path d="M53.6654 191.889C53.9272 191.627 53.9272 191.202 53.6654 190.941C53.4036 190.679 52.979 190.679 52.7172 190.941L46.9333 196.724L41.1494 190.941C40.8875 190.679 40.463 190.679 40.2011 190.941C39.9393 191.202 39.9393 191.627 40.2011 191.889L45.985 197.673L40.2012 203.457C39.9393 203.718 39.9393 204.143 40.2012 204.405C40.463 204.667 40.8876 204.667 41.1494 204.405L46.9333 198.621L52.7171 204.405C52.979 204.667 53.4035 204.667 53.6654 204.405C53.9272 204.143 53.9272 203.718 53.6654 203.457L47.8815 197.673L53.6654 191.889Z" fill="#B3B3B3"/>
<g filter="url(#filter1_d_184_148)">
<path fill-rule="evenodd" clip-rule="evenodd" d="M41.4272 91.2618C42.6441 91.9927 44.5826 91.78 46.9543 90.4507C51.6977 87.792 56.3777 81.6732 57.4073 76.784C57.9221 74.3394 57.4269 72.6651 56.21 71.9342L54.4207 70.8596C53.2038 70.1287 51.2653 70.3414 48.8935 71.6707C44.1501 74.3294 39.4701 80.4482 38.4405 85.3374C37.9257 87.782 38.421 89.4563 39.6379 90.1872L41.4272 91.2618Z" fill="#2C3E50"/>
</g>
<ellipse cx="6.12047" cy="6.12047" rx="6.12047" ry="6.12047" transform="matrix(0.211985 -0.934219 0.900722 -0.520572 40.1541 89.3889)" fill="#43617F"/>
<path d="M48.6678 72.5006C52.8891 70.0609 55.5058 71.6324 54.5123 76.0108C53.5188 80.3891 49.2914 85.9163 45.07 88.356C40.8486 90.7957 38.2319 89.2242 39.2254 84.8458C40.2189 80.4675 44.4464 74.9403 48.6678 72.5006Z" stroke="#20303F" stroke-width="0.515248"/>
<path d="M45.6348 83.6786C45.7745 83.7808 45.8405 83.9381 45.7438 84.2205C45.632 84.547 45.3259 84.873 45.0878 84.9249C44.814 84.9847 44.7027 84.7443 44.8865 84.4017C44.9951 84.1991 45.4294 83.4132 45.6348 83.6786Z" fill="#4FD9CC"/>
<path d="M45.6219 81.5594C45.9146 81.8061 46.5911 81.5105 47.1327 80.899C47.6744 80.2876 47.8762 79.5918 47.5834 79.3451C47.2907 79.0983 46.6142 79.3939 46.0726 80.0054C45.5309 80.6169 45.3291 81.3126 45.6219 81.5594Z" fill="#2C3E50"/>
<path d="M45.7931 82.7245C45.9908 82.6483 46.094 82.757 46.0246 82.968L45.8048 83.6358C46.5858 83.2619 47.3987 82.6265 48.1152 81.8282C48.9028 80.9506 49.4886 79.9655 49.7435 79.0891C49.9957 78.2218 49.9041 77.5499 49.486 77.1974C49.0682 76.8453 48.3745 76.854 47.5327 77.222C46.6908 77.5899 45.8014 78.2731 45.0286 79.1455C44.2558 80.0179 43.6918 80.9754 43.4406 81.8413C43.1895 82.7072 43.2813 83.378 43.699 83.7301C44.0184 83.9993 44.4991 84.0573 45.0839 83.9055L45.3024 83.2506C45.3736 83.0373 45.5937 82.8013 45.7931 82.7245ZM45.7033 79.7142C46.6105 78.6901 47.7473 78.1933 48.2375 78.6066C48.7279 79.0199 48.3887 80.1892 47.4816 81.2132C46.5744 82.2373 45.4375 82.7341 44.9473 82.3208C44.4569 81.9077 44.796 80.7383 45.7033 79.7142Z" fill="#2C3E50"/>
<path d="M49.854 76.7824C49.8913 76.8066 49.927 76.8328 49.9609 76.8614C50.4057 77.2364 50.5034 77.9507 50.236 78.8727C49.9687 79.7948 49.368 80.8143 48.545 81.7434C48.4634 81.8355 48.3807 81.9255 48.2968 82.0135L47.4797 81.2155C48.3869 80.1914 48.726 79.0221 48.2357 78.6089L49.854 76.7824Z" fill="#4FD9CC"/>
<path d="M57.1996 89.1675C57.1996 89.1287 57.1676 89.0975 57.1278 89.0975C56.4768 89.0975 55.9476 88.4859 55.9476 87.7336C55.9476 87.6948 55.9156 87.6636 55.8758 87.6636C55.8361 87.6636 55.804 87.6948 55.804 87.7336C55.804 88.4859 55.2743 89.0975 54.6238 89.0975C54.5841 89.0975 54.552 89.1287 54.552 89.1675C54.552 89.2063 54.5841 89.2376 54.6238 89.2376C55.2743 89.2376 55.804 89.8492 55.804 90.6014C55.804 90.6402 55.8361 90.6715 55.8758 90.6715C55.9156 90.6715 55.9476 90.6402 55.9476 90.6014C55.9476 89.8492 56.477 89.2376 57.1278 89.2376C57.1674 89.2376 57.1996 89.2063 57.1996 89.1675Z" fill="#12AF9B"/>
<path d="M57.1996 89.1675C57.1996 89.1287 57.1676 89.0975 57.1278 89.0975C56.4768 89.0975 55.9476 88.4859 55.9476 87.7336C55.9476 87.6948 55.9156 87.6636 55.8758 87.6636C55.8361 87.6636 55.804 87.6948 55.804 87.7336C55.804 88.4859 55.2743 89.0975 54.6238 89.0975C54.5841 89.0975 54.552 89.1287 54.552 89.1675C54.552 89.2063 54.5841 89.2376 54.6238 89.2376C55.2743 89.2376 55.804 89.8492 55.804 90.6014C55.804 90.6402 55.8361 90.6715 55.8758 90.6715C55.9156 90.6715 55.9476 90.6402 55.9476 90.6014C55.9476 89.8492 56.477 89.2376 57.1278 89.2376C57.1674 89.2376 57.1996 89.2063 57.1996 89.1675Z" fill="white" fill-opacity="0.3"/>
<path d="M56.9367 87.8932C57.1728 87.8932 57.3649 88.1189 57.3649 88.396C57.3649 88.4348 57.397 88.4661 57.4367 88.4661C57.4765 88.4661 57.5085 88.4348 57.5085 88.396C57.5085 88.1189 57.7007 87.8932 57.9368 87.8932C57.9766 87.8932 58.0086 87.862 58.0086 87.8232C58.0086 87.7844 57.9766 87.7531 57.9368 87.7531C57.7007 87.7531 57.5085 87.5275 57.5085 87.2503C57.5085 87.2116 57.4765 87.1803 57.4367 87.1803C57.397 87.1803 57.3649 87.2116 57.3649 87.2503C57.3649 87.5275 57.1728 87.7531 56.9367 87.7531C56.8969 87.7531 56.8649 87.7844 56.8649 87.8232C56.8649 87.8618 56.8969 87.8932 56.9367 87.8932Z" fill="#12AF9B"/>
<path d="M56.9367 87.8932C57.1728 87.8932 57.3649 88.1189 57.3649 88.396C57.3649 88.4348 57.397 88.4661 57.4367 88.4661C57.4765 88.4661 57.5085 88.4348 57.5085 88.396C57.5085 88.1189 57.7007 87.8932 57.9368 87.8932C57.9766 87.8932 58.0086 87.862 58.0086 87.8232C58.0086 87.7844 57.9766 87.7531 57.9368 87.7531C57.7007 87.7531 57.5085 87.5275 57.5085 87.2503C57.5085 87.2116 57.4765 87.1803 57.4367 87.1803C57.397 87.1803 57.3649 87.2116 57.3649 87.2503C57.3649 87.5275 57.1728 87.7531 56.9367 87.7531C56.8969 87.7531 56.8649 87.7844 56.8649 87.8232C56.8649 87.8618 56.8969 87.8932 56.9367 87.8932Z" fill="white" fill-opacity="0.3"/>
<path d="M58.796 90.4856C58.4022 90.4856 58.0818 90.1132 58.0818 89.6557C58.0818 89.617 58.0498 89.5857 58.01 89.5857C57.9703 89.5857 57.9382 89.617 57.9382 89.6557C57.9382 90.1132 57.6178 90.4856 57.224 90.4856C57.1843 90.4856 57.1522 90.5174 57.1522 90.5556C57.1522 90.5944 57.1843 90.6256 57.224 90.6256C57.6179 90.6256 57.9382 90.998 57.9382 91.456C57.9382 91.4947 57.9703 91.526 58.01 91.526C58.0498 91.526 58.0818 91.4947 58.0818 91.456C58.0818 90.998 58.4022 90.6256 58.796 90.6256C58.8357 90.6256 58.8678 90.5944 58.8678 90.5556C58.8678 90.5174 58.8357 90.4856 58.796 90.4856Z" fill="#12AF9B"/>
<path d="M58.796 90.4856C58.4022 90.4856 58.0818 90.1132 58.0818 89.6557C58.0818 89.617 58.0498 89.5857 58.01 89.5857C57.9703 89.5857 57.9382 89.617 57.9382 89.6557C57.9382 90.1132 57.6178 90.4856 57.224 90.4856C57.1843 90.4856 57.1522 90.5174 57.1522 90.5556C57.1522 90.5944 57.1843 90.6256 57.224 90.6256C57.6179 90.6256 57.9382 90.998 57.9382 91.456C57.9382 91.4947 57.9703 91.526 58.01 91.526C58.0498 91.526 58.0818 91.4947 58.0818 91.456C58.0818 90.998 58.4022 90.6256 58.796 90.6256C58.8357 90.6256 58.8678 90.5944 58.8678 90.5556C58.8678 90.5174 58.8357 90.4856 58.796 90.4856Z" fill="white" fill-opacity="0.3"/>
<path d="M39.6986 73.8479C39.6986 73.8092 39.6666 73.7779 39.6268 73.7779C38.9758 73.7779 38.4466 73.1663 38.4466 72.414C38.4466 72.3753 38.4146 72.344 38.3748 72.344C38.3351 72.344 38.303 72.3753 38.303 72.414C38.303 73.1663 37.7733 73.7779 37.1228 73.7779C37.0831 73.7779 37.051 73.8092 37.051 73.8479C37.051 73.8867 37.0831 73.918 37.1228 73.918C37.7733 73.918 38.303 74.5296 38.303 75.2818C38.303 75.3206 38.3351 75.3519 38.3748 75.3519C38.4146 75.3519 38.4466 75.3206 38.4466 75.2818C38.4466 74.5296 38.976 73.918 39.6268 73.918C39.6664 73.918 39.6986 73.8867 39.6986 73.8479Z" fill="#12AF9B"/>
<path d="M39.6986 73.8479C39.6986 73.8092 39.6666 73.7779 39.6268 73.7779C38.9758 73.7779 38.4466 73.1663 38.4466 72.414C38.4466 72.3753 38.4146 72.344 38.3748 72.344C38.3351 72.344 38.303 72.3753 38.303 72.414C38.303 73.1663 37.7733 73.7779 37.1228 73.7779C37.0831 73.7779 37.051 73.8092 37.051 73.8479C37.051 73.8867 37.0831 73.918 37.1228 73.918C37.7733 73.918 38.303 74.5296 38.303 75.2818C38.303 75.3206 38.3351 75.3519 38.3748 75.3519C38.4146 75.3519 38.4466 75.3206 38.4466 75.2818C38.4466 74.5296 38.976 73.918 39.6268 73.918C39.6664 73.918 39.6986 73.8867 39.6986 73.8479Z" fill="white" fill-opacity="0.3"/>
<path d="M39.4357 72.5738C39.6718 72.5738 39.864 72.7994 39.864 73.0766C39.864 73.1153 39.896 73.1466 39.9358 73.1466C39.9755 73.1466 40.0076 73.1153 40.0076 73.0766C40.0076 72.7994 40.1997 72.5738 40.4358 72.5738C40.4756 72.5738 40.5076 72.5425 40.5076 72.5037C40.5076 72.465 40.4756 72.4337 40.4358 72.4337C40.1997 72.4337 40.0076 72.208 40.0076 71.9309C40.0076 71.8921 39.9755 71.8608 39.9358 71.8608C39.896 71.8608 39.864 71.8921 39.864 71.9309C39.864 72.208 39.6718 72.4337 39.4357 72.4337C39.3959 72.4337 39.3639 72.465 39.3639 72.5037C39.3639 72.5423 39.3959 72.5738 39.4357 72.5738Z" fill="#12AF9B"/>
<path d="M39.4357 72.5738C39.6718 72.5738 39.864 72.7994 39.864 73.0766C39.864 73.1153 39.896 73.1466 39.9358 73.1466C39.9755 73.1466 40.0076 73.1153 40.0076 73.0766C40.0076 72.7994 40.1997 72.5738 40.4358 72.5738C40.4756 72.5738 40.5076 72.5425 40.5076 72.5037C40.5076 72.465 40.4756 72.4337 40.4358 72.4337C40.1997 72.4337 40.0076 72.208 40.0076 71.9309C40.0076 71.8921 39.9755 71.8608 39.9358 71.8608C39.896 71.8608 39.864 71.8921 39.864 71.9309C39.864 72.208 39.6718 72.4337 39.4357 72.4337C39.3959 72.4337 39.3639 72.465 39.3639 72.5037C39.3639 72.5423 39.3959 72.5738 39.4357 72.5738Z" fill="white" fill-opacity="0.3"/>
<path d="M41.295 75.1661C40.9012 75.1661 40.5808 74.7937 40.5808 74.3363C40.5808 74.2975 40.5488 74.2662 40.509 74.2662C40.4693 74.2662 40.4372 74.2975 40.4372 74.3363C40.4372 74.7937 40.1169 75.1661 39.723 75.1661C39.6833 75.1661 39.6512 75.1979 39.6512 75.2361C39.6512 75.2749 39.6833 75.3062 39.723 75.3062C40.1169 75.3062 40.4372 75.6785 40.4372 76.1365C40.4372 76.1753 40.4693 76.2065 40.509 76.2065C40.5488 76.2065 40.5808 76.1753 40.5808 76.1365C40.5808 75.6785 40.9012 75.3062 41.295 75.3062C41.3348 75.3062 41.3668 75.2749 41.3668 75.2361C41.3668 75.1979 41.3348 75.1661 41.295 75.1661Z" fill="#12AF9B"/>
<path d="M41.295 75.1661C40.9012 75.1661 40.5808 74.7937 40.5808 74.3363C40.5808 74.2975 40.5488 74.2662 40.509 74.2662C40.4693 74.2662 40.4372 74.2975 40.4372 74.3363C40.4372 74.7937 40.1169 75.1661 39.723 75.1661C39.6833 75.1661 39.6512 75.1979 39.6512 75.2361C39.6512 75.2749 39.6833 75.3062 39.723 75.3062C40.1169 75.3062 40.4372 75.6785 40.4372 76.1365C40.4372 76.1753 40.4693 76.2065 40.509 76.2065C40.5488 76.2065 40.5808 76.1753 40.5808 76.1365C40.5808 75.6785 40.9012 75.3062 41.295 75.3062C41.3348 75.3062 41.3668 75.2749 41.3668 75.2361C41.3668 75.1979 41.3348 75.1661 41.295 75.1661Z" fill="white" fill-opacity="0.3"/>
<path d="M50.5839 65.3191C50.5839 65.2804 50.5518 65.2491 50.5121 65.2491C49.8611 65.2491 49.3319 64.6375 49.3319 63.8852C49.3319 63.8465 49.2998 63.8152 49.2601 63.8152C49.2203 63.8152 49.1883 63.8465 49.1883 63.8852C49.1883 64.6375 48.6585 65.2491 48.0081 65.2491C47.9683 65.2491 47.9363 65.2804 47.9363 65.3191C47.9363 65.3579 47.9683 65.3892 48.0081 65.3892C48.6585 65.3892 49.1883 66.0008 49.1883 66.753C49.1883 66.7918 49.2203 66.8231 49.2601 66.8231C49.2998 66.8231 49.3319 66.7918 49.3319 66.753C49.3319 66.0008 49.8613 65.3892 50.5121 65.3892C50.5517 65.3892 50.5839 65.3579 50.5839 65.3191Z" fill="#12AF9B"/>
<path d="M50.5839 65.3191C50.5839 65.2804 50.5518 65.2491 50.5121 65.2491C49.8611 65.2491 49.3319 64.6375 49.3319 63.8852C49.3319 63.8465 49.2998 63.8152 49.2601 63.8152C49.2203 63.8152 49.1883 63.8465 49.1883 63.8852C49.1883 64.6375 48.6585 65.2491 48.0081 65.2491C47.9683 65.2491 47.9363 65.2804 47.9363 65.3191C47.9363 65.3579 47.9683 65.3892 48.0081 65.3892C48.6585 65.3892 49.1883 66.0008 49.1883 66.753C49.1883 66.7918 49.2203 66.8231 49.2601 66.8231C49.2998 66.8231 49.3319 66.7918 49.3319 66.753C49.3319 66.0008 49.8613 65.3892 50.5121 65.3892C50.5517 65.3892 50.5839 65.3579 50.5839 65.3191Z" fill="white" fill-opacity="0.3"/>
<path d="M50.3209 64.0448C50.5571 64.0448 50.7492 64.2705 50.7492 64.5476C50.7492 64.5864 50.7813 64.6177 50.821 64.6177C50.8608 64.6177 50.8928 64.5864 50.8928 64.5476C50.8928 64.2705 51.085 64.0448 51.3211 64.0448C51.3608 64.0448 51.3929 64.0136 51.3929 63.9748C51.3929 63.936 51.3608 63.9048 51.3211 63.9048C51.085 63.9048 50.8928 63.6791 50.8928 63.402C50.8928 63.3632 50.8608 63.3319 50.821 63.3319C50.7813 63.3319 50.7492 63.3632 50.7492 63.402C50.7492 63.6791 50.5571 63.9048 50.3209 63.9048C50.2812 63.9048 50.2491 63.936 50.2491 63.9748C50.2491 64.0134 50.2812 64.0448 50.3209 64.0448Z" fill="#12AF9B"/>
<path d="M50.3209 64.0448C50.5571 64.0448 50.7492 64.2705 50.7492 64.5476C50.7492 64.5864 50.7813 64.6177 50.821 64.6177C50.8608 64.6177 50.8928 64.5864 50.8928 64.5476C50.8928 64.2705 51.085 64.0448 51.3211 64.0448C51.3608 64.0448 51.3929 64.0136 51.3929 63.9748C51.3929 63.936 51.3608 63.9048 51.3211 63.9048C51.085 63.9048 50.8928 63.6791 50.8928 63.402C50.8928 63.3632 50.8608 63.3319 50.821 63.3319C50.7813 63.3319 50.7492 63.3632 50.7492 63.402C50.7492 63.6791 50.5571 63.9048 50.3209 63.9048C50.2812 63.9048 50.2491 63.936 50.2491 63.9748C50.2491 64.0134 50.2812 64.0448 50.3209 64.0448Z" fill="white" fill-opacity="0.3"/>
<path d="M52.1803 66.6372C51.7864 66.6372 51.4661 66.2648 51.4661 65.8073C51.4661 65.7686 51.434 65.7373 51.3943 65.7373C51.3545 65.7373 51.3225 65.7686 51.3225 65.8073C51.3225 66.2648 51.0021 66.6372 50.6083 66.6372C50.5686 66.6372 50.5365 66.669 50.5365 66.7072C50.5365 66.746 50.5686 66.7772 50.6083 66.7772C51.0021 66.7772 51.3225 67.1496 51.3225 67.6076C51.3225 67.6463 51.3545 67.6776 51.3943 67.6776C51.434 67.6776 51.4661 67.6463 51.4661 67.6076C51.4661 67.1496 51.7865 66.7772 52.1803 66.7772C52.22 66.7772 52.2521 66.746 52.2521 66.7072C52.2521 66.669 52.22 66.6372 52.1803 66.6372Z" fill="#12AF9B"/>
<path d="M52.1803 66.6372C51.7864 66.6372 51.4661 66.2648 51.4661 65.8073C51.4661 65.7686 51.434 65.7373 51.3943 65.7373C51.3545 65.7373 51.3225 65.7686 51.3225 65.8073C51.3225 66.2648 51.0021 66.6372 50.6083 66.6372C50.5686 66.6372 50.5365 66.669 50.5365 66.7072C50.5365 66.746 50.5686 66.7772 50.6083 66.7772C51.0021 66.7772 51.3225 67.1496 51.3225 67.6076C51.3225 67.6463 51.3545 67.6776 51.3943 67.6776C51.434 67.6776 51.4661 67.6463 51.4661 67.6076C51.4661 67.1496 51.7865 66.7772 52.1803 66.7772C52.22 66.7772 52.2521 66.746 52.2521 66.7072C52.2521 66.669 52.22 66.6372 52.1803 66.6372Z" fill="white" fill-opacity="0.3"/>
<path d="M44.2513 166.375C43.881 166.375 43.5808 166.675 43.5808 167.046C43.5808 167.416 43.881 167.716 44.2513 167.716H49.6153C49.9856 167.716 50.2858 167.416 50.2858 167.046C50.2858 166.675 49.9856 166.375 49.6153 166.375H44.2513Z" fill="#B3B3B3"/>
<path fill-rule="evenodd" clip-rule="evenodd" d="M46.9331 152.071C46.2849 152.071 45.6935 152.249 45.0462 152.551C44.4195 152.844 43.6948 153.276 42.7866 153.817L41.4853 154.592C40.4848 155.188 39.6876 155.663 39.0839 156.117C38.4608 156.586 37.9931 157.068 37.6883 157.704C37.3834 158.34 37.3008 159.006 37.3273 159.783C37.3529 160.535 37.4845 161.449 37.6494 162.595L37.9108 164.412C38.123 165.887 38.2914 167.057 38.5431 167.968C38.8024 168.908 39.1704 169.653 39.8345 170.225C40.498 170.797 41.2919 171.052 42.2632 171.174C43.2065 171.292 44.3967 171.292 45.8982 171.292H47.9681C49.4696 171.292 50.6598 171.292 51.6031 171.174C52.5745 171.052 53.3683 170.797 54.0319 170.225C54.6958 169.653 55.0639 168.908 55.3232 167.968C55.5748 167.057 55.7432 165.887 55.9555 164.412L56.2168 162.595C56.3818 161.449 56.5133 160.535 56.539 159.783C56.5655 159.006 56.4828 158.34 56.1779 157.704C55.8731 157.068 55.4055 156.586 54.7824 156.117C54.1787 155.663 53.3815 155.188 52.381 154.592L51.0797 153.817C50.1715 153.276 49.4468 152.844 48.8201 152.551C48.1728 152.249 47.5814 152.071 46.9331 152.071ZM43.4426 154.987C44.388 154.424 45.055 154.027 45.6133 153.766C46.1579 153.512 46.5494 153.412 46.9331 153.412C47.3169 153.412 47.7084 153.512 48.2529 153.766C48.8113 154.027 49.4783 154.424 50.4237 154.987L51.6618 155.724C52.7027 156.344 53.4372 156.783 53.9762 157.188C54.5022 157.584 54.7903 157.912 54.9687 158.284C55.1469 158.656 55.2211 159.083 55.1988 159.737C55.1759 160.407 55.0557 161.249 54.884 162.443L54.6348 164.174C54.4144 165.706 54.2569 166.792 54.0306 167.612C53.8094 168.413 53.5433 168.876 53.1568 169.209C52.7698 169.542 52.2682 169.739 51.4362 169.843C50.586 169.95 49.48 169.951 47.922 169.951H45.9443C44.3863 169.951 43.2803 169.95 42.4301 169.843C41.5982 169.739 41.0965 169.542 40.7095 169.209C40.323 168.876 40.0568 168.413 39.8357 167.612C39.6094 166.792 39.4519 165.706 39.2315 164.174L38.9823 162.442C38.8106 161.249 38.6904 160.407 38.6675 159.737C38.6452 159.083 38.7193 158.656 38.8976 158.284C39.076 157.912 39.3641 157.584 39.8901 157.188C40.4291 156.783 41.1636 156.344 42.2045 155.724L43.4426 154.987Z" fill="#B3B3B3"/>
<g clip-path="url(#clip2_184_148)">
<path d="M36.7259 120.681L44.5946 113.913C44.7426 113.785 44.8166 113.722 44.9012 113.686C44.9763 113.654 45.057 113.637 45.1386 113.638C45.2307 113.639 45.3234 113.669 45.5091 113.729L55.3792 116.939M36.7259 120.681L38.7211 130.628C38.7609 130.826 38.7808 130.926 38.8278 131.009C38.8693 131.082 38.9259 131.145 38.9938 131.195C39.0706 131.251 39.167 131.283 39.3596 131.345L49.2095 134.549M36.7259 120.681L46.9879 123.473M55.3792 116.939L57.3744 126.886C57.4143 127.085 57.4342 127.184 57.4228 127.279C57.4128 127.362 57.3851 127.443 57.3415 127.515C57.2924 127.596 57.2157 127.662 57.0621 127.794L49.2095 134.549M55.3792 116.939L46.9879 123.473M49.2095 134.549L46.9879 123.473" stroke="#B3B3B3" stroke-width="1.30814" stroke-linecap="round" stroke-linejoin="round"/>
</g>
</g>
</g>
<defs>
<filter id="filter0_d_184_148" x="-0.0295496" y="0.52102" width="75.2366" height="235.242" filterUnits="userSpaceOnUse" color-interpolation-filters="sRGB">
<feFlood flood-opacity="0" result="BackgroundImageFix"/>
<feColorMatrix in="SourceAlpha" type="matrix" values="0 0 0 0 0 0 0 0 0 0 0 0 0 0 0 0 0 0 127 0" result="hardAlpha"/>
<feOffset dx="-9.387" dy="2.682"/>
<feGaussianBlur stdDeviation="6.705"/>
<feComposite in2="hardAlpha" operator="out"/>
<feColorMatrix type="matrix" values="0 0 0 0 0 0 0 0 0 0 0 0 0 0 0 0 0 0 0.1 0"/>
<feBlend mode="normal" in2="BackgroundImageFix" result="effect1_dropShadow_184_148"/>
<feBlend mode="normal" in="SourceGraphic" in2="effect1_dropShadow_184_148" result="shape"/>
</filter>
<filter id="filter1_d_184_148" x="34.7574" y="67.7545" width="29.1814" height="31.0432" filterUnits="userSpaceOnUse" color-interpolation-filters="sRGB">
<feFlood flood-opacity="0" result="BackgroundImageFix"/>
<feColorMatrix in="SourceAlpha" type="matrix" values="0 0 0 0 0 0 0 0 0 0 0 0 0 0 0 0 0 0 127 0" result="hardAlpha"/>
<feOffset dx="1.42416" dy="2.21536"/>
<feGaussianBlur stdDeviation="2.45273"/>
<feComposite in2="hardAlpha" operator="out"/>
<feColorMatrix type="matrix" values="0 0 0 0 0.0705882 0 0 0 0 0.686275 0 0 0 0 0.607843 0 0 0 0.2 0"/>
<feBlend mode="normal" in2="BackgroundImageFix" result="effect1_dropShadow_184_148"/>
<feBlend mode="normal" in="SourceGraphic" in2="effect1_dropShadow_184_148" result="shape"/>
</filter>
<clipPath id="clip0_184_148">
<rect x="70.8608" y="11.249" width="208.348" height="48.0935" rx="15.4215" transform="rotate(89.9111 70.8608 11.249)" fill="white"/>
</clipPath>
<clipPath id="clip1_184_148">
<rect width="21.456" height="21.456" fill="white" transform="translate(36.2052 27.3411)"/>
</clipPath>
<clipPath id="clip2_184_148">
<rect width="23.2558" height="23.2558" fill="white" transform="translate(33.4187 114.95) rotate(-11.3421)"/>
</clipPath>
</defs>
</svg>
