<svg width="38" height="38" viewBox="0 0 38 38" fill="none" xmlns="http://www.w3.org/2000/svg">
<path d="M7.66182 19.7741H1.60562C1.27102 19.7741 1 19.5031 1 19.1685C1 18.8339 1.27102 18.5629 1.60562 18.5629H7.66182C7.99643 18.5629 8.26744 18.8339 8.26744 19.1685C8.26744 19.5031 7.99643 19.7741 7.66182 19.7741ZM10.6036 11.4606C10.7217 11.5787 10.8761 11.6377 11.0321 11.6377C11.1865 11.6377 11.3425 11.5787 11.4606 11.4606C11.6968 11.2244 11.6968 10.8413 11.4606 10.6036L7.17725 6.32031C6.94105 6.08412 6.55798 6.08412 6.32031 6.32031C6.08412 6.5565 6.08412 6.93957 6.32031 7.17725L10.6036 11.4606ZM19.1687 8.26744C19.5033 8.26744 19.7743 7.99643 19.7743 7.66182V1.60562C19.7743 1.27102 19.5033 1 19.1687 1C18.8341 1 18.5631 1.27102 18.5631 1.60562V7.66182C18.5631 7.99643 18.8341 8.26744 19.1687 8.26744ZM27.7338 26.8767C27.4976 26.6405 27.1146 26.6405 26.8769 26.8767C26.6407 27.1129 26.6407 27.496 26.8769 27.7337L31.1602 32.017C31.2783 32.1351 31.4328 32.1942 31.5887 32.1942C31.7432 32.1942 31.8991 32.1351 32.0172 32.017C32.2534 31.7808 32.2534 31.3977 32.0172 31.1601L27.7338 26.8767ZM27.3053 11.638C27.4598 11.638 27.6157 11.5789 27.7338 11.4608L32.0172 7.17751C32.2534 6.94131 32.2534 6.55824 32.0172 6.32057C31.781 6.08438 31.3979 6.08438 31.1602 6.32057L26.8769 10.6039C26.6407 10.8401 26.6407 11.2232 26.8769 11.4608C26.995 11.5789 27.1509 11.638 27.3053 11.638ZM36.7317 18.5632H30.6755C30.3409 18.5632 30.0699 18.8342 30.0699 19.1688C30.0699 19.5034 30.3409 19.7744 30.6755 19.7744H36.7317C37.0663 19.7744 37.3373 19.5034 37.3373 19.1688C37.3373 18.8342 37.0663 18.5632 36.7317 18.5632ZM10.6038 26.8767L6.32046 31.1601C6.08427 31.3963 6.08427 31.7793 6.32046 32.017C6.43856 32.1351 6.59299 32.1942 6.74895 32.1942C6.90339 32.1942 7.05933 32.1351 7.17744 32.017L11.4608 27.7337C11.697 27.4975 11.697 27.1144 11.4608 26.8767C11.2246 26.6405 10.8415 26.6405 10.6038 26.8767ZM27.0418 19.1686C27.0418 23.5093 23.5095 27.0415 19.1689 27.0415C14.8282 27.0415 11.296 23.5092 11.296 19.1686C11.296 14.828 14.8283 11.2957 19.1689 11.2957C23.5096 11.2957 27.0418 14.828 27.0418 19.1686ZM25.8305 19.1686C25.8305 15.4955 22.8418 12.5066 19.1685 12.5066C15.4954 12.5066 12.5065 15.4953 12.5065 19.1686C12.5065 22.8419 15.4952 25.8306 19.1685 25.8306C22.8416 25.8306 25.8305 22.8434 25.8305 19.1686ZM19.1685 30.0698C18.8339 30.0698 18.5629 30.3408 18.5629 30.6754V36.7316C18.5629 37.0662 18.8339 37.3372 19.1685 37.3372C19.5031 37.3372 19.7741 37.0662 19.7741 36.7316V30.6754C19.7741 30.3408 19.5031 30.0698 19.1685 30.0698Z" fill="#12AF9B" fill-opacity="0.4" stroke="#12AF9B" stroke-opacity="0.4" stroke-width="0.726744"/>
</svg>
